<svg xmlns="http://www.w3.org/2000/svg" viewBox="0 0 1200 900" width="1200" height="900" role="img">
<defs>
    <linearGradient id="ground" x1="0" y1="0" x2="1200" y2="900" gradientUnits="userSpaceOnUse">
      <stop offset="0" stop-color="#0B0E17"/><stop offset="1" stop-color="#141A2B"/>
    </linearGradient>
    <radialGradient id="auroraC"><stop offset="0" stop-color="#22D3EE" stop-opacity="0.28"/><stop offset="1" stop-color="#22D3EE" stop-opacity="0"/></radialGradient>
    <radialGradient id="auroraV"><stop offset="0" stop-color="#7C6CFF" stop-opacity="0.30"/><stop offset="1" stop-color="#7C6CFF" stop-opacity="0"/></radialGradient>
    <pattern id="grid" width="48" height="48" patternUnits="userSpaceOnUse">
      <path d="M48 0H0V48" fill="none" stroke="#FFFFFF" stroke-opacity="0.05" stroke-width="1"/>
    </pattern>
    <linearGradient id="fadeGrad" x1="0" y1="0" x2="0" y2="900" gradientUnits="userSpaceOnUse">
      <stop offset="0" stop-color="#FFFFFF" stop-opacity="0.9"/>
      <stop offset="1" stop-color="#FFFFFF" stop-opacity="0.05"/>
    </linearGradient>
    <mask id="fade"><rect width="1200" height="900" fill="url(#fadeGrad)"/></mask>
    <linearGradient id="accent" x1="0" y1="0" x2="1200" y2="0" gradientUnits="userSpaceOnUse">
      <stop offset="0" stop-color="#22D3EE"/><stop offset="1" stop-color="#7C6CFF"/>
    </linearGradient>
  </defs>
  <rect width="1200" height="900" fill="url(#ground)"/>
  <ellipse cx="768" cy="311" rx="624" ry="414" fill="url(#auroraC)"/>
  <ellipse cx="974" cy="688" rx="552" ry="378" fill="url(#auroraV)"/>
  <rect width="1200" height="900" fill="url(#grid)" mask="url(#fade)"/>
<circle cx="600" cy="450" r="250" fill="none" stroke="#FFFFFF" stroke-opacity="0.1" stroke-width="1.5"/><path d="M701.9 221.7 A250 250 0 0 1 848.7 475.9" fill="none" stroke="#22D3EE" stroke-opacity="0.75" stroke-width="2.5" stroke-linecap="round" stroke-linejoin="round"/><g transform="translate(848.7 475.9) rotate(95.9)">
            <path d="M-11 -12 L0 0 L11 -12" fill="none" stroke="#22D3EE" stroke-opacity="0.9" stroke-width="2.5" stroke-linecap="round" stroke-linejoin="round"/>
          </g><path d="M746.7 652.4 A250 250 0 0 1 453.3 652.4" fill="none" stroke="#22D3EE" stroke-opacity="0.75" stroke-width="2.5" stroke-linecap="round" stroke-linejoin="round"/><g transform="translate(453.3 652.4) rotate(215.9)">
            <path d="M-11 -12 L0 0 L11 -12" fill="none" stroke="#22D3EE" stroke-opacity="0.9" stroke-width="2.5" stroke-linecap="round" stroke-linejoin="round"/>
          </g><path d="M351.3 475.9 A250 250 0 0 1 498.1 221.7" fill="none" stroke="#22D3EE" stroke-opacity="0.75" stroke-width="2.5" stroke-linecap="round" stroke-linejoin="round"/><g transform="translate(498.1 221.7) rotate(335.9)">
            <path d="M-11 -12 L0 0 L11 -12" fill="none" stroke="#22D3EE" stroke-opacity="0.9" stroke-width="2.5" stroke-linecap="round" stroke-linejoin="round"/>
          </g><rect x="485" y="136" width="230" height="128" rx="18" fill="#0B0E17" fill-opacity="0.92" stroke="#22D3EE" stroke-opacity="0.5" stroke-width="2"/><rect x="514" y="166" width="112" height="9" rx="4.5" fill="#22D3EE" fill-opacity="0.9"/><rect x="514" y="190" width="172" height="7" rx="3.5" fill="#4A5570" fill-opacity="1"/>
  <rect x="514" y="212" width="110" height="7" rx="3.5" fill="#4A5570" fill-opacity="1"/><rect x="701.5063509461097" y="511" width="230" height="128" rx="18" fill="#0B0E17" fill-opacity="0.92" stroke="#FFFFFF" stroke-opacity="0.18" stroke-width="2"/><rect x="730.5063509461097" y="541" width="112" height="9" rx="4.5" fill="#E8ECF6" fill-opacity="0.5"/><rect x="730.5063509461097" y="565" width="172" height="7" rx="3.5" fill="#4A5570" fill-opacity="1"/>
  <rect x="730.5063509461097" y="587" width="110" height="7" rx="3.5" fill="#4A5570" fill-opacity="1"/><rect x="268.4936490538903" y="511" width="230" height="128" rx="18" fill="#0B0E17" fill-opacity="0.92" stroke="#FFFFFF" stroke-opacity="0.18" stroke-width="2"/><rect x="297.4936490538903" y="541" width="112" height="9" rx="4.5" fill="#E8ECF6" fill-opacity="0.5"/><rect x="297.4936490538903" y="565" width="172" height="7" rx="3.5" fill="#4A5570" fill-opacity="1"/>
  <rect x="297.4936490538903" y="587" width="110" height="7" rx="3.5" fill="#4A5570" fill-opacity="1"/><circle cx="600" cy="450" r="10" fill="#7C6CFF" fill-opacity="0.9"/><circle cx="600" cy="450" r="26" fill="none" stroke="#7C6CFF" stroke-opacity="0.5" stroke-width="2"/>
</svg>
